<svg width="545" height="465" viewBox="0 0 545 465" xmlns="http://www.w3.org/2000/svg">
  <!--
    v9: FM sliders evenly distributed across panel; Sub sits above Output.
    Panel: 545×465

    Slider cx: 82.5, 209, 336, 462.5  (spacing ~126.7, symmetric margins, Sub over Output)
    Knob  cx: 82.5, 177.5, 272.5, 367.5, 462.5  (spacing 95, evenly distributed)

    Track: y=78–318  |  Separator: y=362  |  Knob cy: 407  |  Labels: y=444
  -->
  <defs>
    <linearGradient id="panel-overlay" x1="0" y1="0" x2="0" y2="1">
      <stop offset="0%"   stop-color="#ffffff" stop-opacity="0.094"/>
      <stop offset="100%" stop-color="#000000" stop-opacity="0.094"/>
    </linearGradient>
  </defs>

  <!-- Panel -->
  <rect width="545" height="465" fill="#d8d8d8"/>
  <rect width="545" height="465" fill="url(#panel-overlay)"/>

  <!-- Title -->
  <text x="272.5" y="48" text-anchor="middle"
    font-family="-apple-system, BlinkMacSystemFont, 'Helvetica Neue', sans-serif"
    font-size="13" font-weight="700" letter-spacing="0.5" fill="#222222">2-OP</text>

  <!-- ═══ RATIO (cx=82.5) ═══ -->
  <g stroke="#888888" stroke-width="1">
    <line x1="68.5" x2="78"   y1="99.8"  y2="99.8"/>  <line x1="87"   x2="96.5"  y1="99.8"  y2="99.8"/>
    <line x1="68.5" x2="78"   y1="121.6" y2="121.6"/> <line x1="87"   x2="96.5"  y1="121.6" y2="121.6"/>
    <line x1="68.5" x2="78"   y1="143.5" y2="143.5"/> <line x1="87"   x2="96.5"  y1="143.5" y2="143.5"/>
    <line x1="68.5" x2="78"   y1="165.3" y2="165.3"/> <line x1="87"   x2="96.5"  y1="165.3" y2="165.3"/>
    <line x1="68.5" x2="78"   y1="187.1" y2="187.1"/> <line x1="87"   x2="96.5"  y1="187.1" y2="187.1"/>
    <line x1="68.5" x2="78"   y1="208.9" y2="208.9"/> <line x1="87"   x2="96.5"  y1="208.9" y2="208.9"/>
    <line x1="68.5" x2="78"   y1="230.7" y2="230.7"/> <line x1="87"   x2="96.5"  y1="230.7" y2="230.7"/>
    <line x1="68.5" x2="78"   y1="252.5" y2="252.5"/> <line x1="87"   x2="96.5"  y1="252.5" y2="252.5"/>
    <line x1="68.5" x2="78"   y1="274.4" y2="274.4"/> <line x1="87"   x2="96.5"  y1="274.4" y2="274.4"/>
    <line x1="68.5" x2="78"   y1="296.2" y2="296.2"/> <line x1="87"   x2="96.5"  y1="296.2" y2="296.2"/>
  </g>
  <rect x="79.5" y="78" width="6" height="240" fill="#2a2a2a"/>
  <rect x="61.5" y="190.5" width="42" height="15" fill="#111111"/>
  <line x1="61.5" y1="198" x2="103.5" y2="198" stroke="#ffffff" stroke-width="1"/>

  <!-- ═══ INDEX (cx=209) ═══ -->
  <g stroke="#888888" stroke-width="1">
    <line x1="195"  x2="204.5" y1="99.8"  y2="99.8"/>  <line x1="213.5" x2="223"  y1="99.8"  y2="99.8"/>
    <line x1="195"  x2="204.5" y1="121.6" y2="121.6"/> <line x1="213.5" x2="223"  y1="121.6" y2="121.6"/>
    <line x1="195"  x2="204.5" y1="143.5" y2="143.5"/> <line x1="213.5" x2="223"  y1="143.5" y2="143.5"/>
    <line x1="195"  x2="204.5" y1="165.3" y2="165.3"/> <line x1="213.5" x2="223"  y1="165.3" y2="165.3"/>
    <line x1="195"  x2="204.5" y1="187.1" y2="187.1"/> <line x1="213.5" x2="223"  y1="187.1" y2="187.1"/>
    <line x1="195"  x2="204.5" y1="208.9" y2="208.9"/> <line x1="213.5" x2="223"  y1="208.9" y2="208.9"/>
    <line x1="195"  x2="204.5" y1="230.7" y2="230.7"/> <line x1="213.5" x2="223"  y1="230.7" y2="230.7"/>
    <line x1="195"  x2="204.5" y1="252.5" y2="252.5"/> <line x1="213.5" x2="223"  y1="252.5" y2="252.5"/>
    <line x1="195"  x2="204.5" y1="274.4" y2="274.4"/> <line x1="213.5" x2="223"  y1="274.4" y2="274.4"/>
    <line x1="195"  x2="204.5" y1="296.2" y2="296.2"/> <line x1="213.5" x2="223"  y1="296.2" y2="296.2"/>
  </g>
  <rect x="206" y="78" width="6" height="240" fill="#2a2a2a"/>
  <rect x="188" y="238.5" width="42" height="15" fill="#111111"/>
  <line x1="188" y1="246" x2="230" y2="246" stroke="#ffffff" stroke-width="1"/>

  <!-- ═══ FEEDBACK (cx=336) ═══ -->
  <g stroke="#888888" stroke-width="1">
    <line x1="322"  x2="331.5" y1="99.8"  y2="99.8"/>  <line x1="340.5" x2="350"  y1="99.8"  y2="99.8"/>
    <line x1="322"  x2="331.5" y1="121.6" y2="121.6"/> <line x1="340.5" x2="350"  y1="121.6" y2="121.6"/>
    <line x1="322"  x2="331.5" y1="143.5" y2="143.5"/> <line x1="340.5" x2="350"  y1="143.5" y2="143.5"/>
    <line x1="322"  x2="331.5" y1="165.3" y2="165.3"/> <line x1="340.5" x2="350"  y1="165.3" y2="165.3"/>
    <line x1="322"  x2="331.5" y1="187.1" y2="187.1"/> <line x1="340.5" x2="350"  y1="187.1" y2="187.1"/>
    <line x1="322"  x2="331.5" y1="208.9" y2="208.9"/> <line x1="340.5" x2="350"  y1="208.9" y2="208.9"/>
    <line x1="322"  x2="331.5" y1="230.7" y2="230.7"/> <line x1="340.5" x2="350"  y1="230.7" y2="230.7"/>
    <line x1="322"  x2="331.5" y1="252.5" y2="252.5"/> <line x1="340.5" x2="350"  y1="252.5" y2="252.5"/>
    <line x1="322"  x2="331.5" y1="274.4" y2="274.4"/> <line x1="340.5" x2="350"  y1="274.4" y2="274.4"/>
    <line x1="322"  x2="331.5" y1="296.2" y2="296.2"/> <line x1="340.5" x2="350"  y1="296.2" y2="296.2"/>
  </g>
  <rect x="333" y="78" width="6" height="240" fill="#2a2a2a"/>
  <rect x="315" y="190.5" width="42" height="15" fill="#111111"/>
  <line x1="315" y1="198" x2="357" y2="198" stroke="#ffffff" stroke-width="1"/>

  <!-- ═══ SUB (cx=462.5) — above Output ═══ -->
  <g stroke="#888888" stroke-width="1">
    <line x1="448.5" x2="458"  y1="99.8"  y2="99.8"/>  <line x1="467"   x2="476.5" y1="99.8"  y2="99.8"/>
    <line x1="448.5" x2="458"  y1="121.6" y2="121.6"/> <line x1="467"   x2="476.5" y1="121.6" y2="121.6"/>
    <line x1="448.5" x2="458"  y1="143.5" y2="143.5"/> <line x1="467"   x2="476.5" y1="143.5" y2="143.5"/>
    <line x1="448.5" x2="458"  y1="165.3" y2="165.3"/> <line x1="467"   x2="476.5" y1="165.3" y2="165.3"/>
    <line x1="448.5" x2="458"  y1="187.1" y2="187.1"/> <line x1="467"   x2="476.5" y1="187.1" y2="187.1"/>
    <line x1="448.5" x2="458"  y1="208.9" y2="208.9"/> <line x1="467"   x2="476.5" y1="208.9" y2="208.9"/>
    <line x1="448.5" x2="458"  y1="230.7" y2="230.7"/> <line x1="467"   x2="476.5" y1="230.7" y2="230.7"/>
    <line x1="448.5" x2="458"  y1="252.5" y2="252.5"/> <line x1="467"   x2="476.5" y1="252.5" y2="252.5"/>
    <line x1="448.5" x2="458"  y1="274.4" y2="274.4"/> <line x1="467"   x2="476.5" y1="274.4" y2="274.4"/>
    <line x1="448.5" x2="458"  y1="296.2" y2="296.2"/> <line x1="467"   x2="476.5" y1="296.2" y2="296.2"/>
  </g>
  <rect x="459.5" y="78" width="6" height="240" fill="#2a2a2a"/>
  <rect x="441.5" y="310.5" width="42" height="15" fill="#111111"/>
  <line x1="441.5" y1="318" x2="483.5" y2="318" stroke="#ffffff" stroke-width="1"/>

  <!-- Slider labels -->
  <text x="82.5"  y="340" text-anchor="middle"
    font-family="-apple-system, BlinkMacSystemFont, 'Helvetica Neue', sans-serif"
    font-size="10" font-weight="700" letter-spacing="0.3" fill="#444444">Ratio</text>
  <text x="209"   y="340" text-anchor="middle"
    font-family="-apple-system, BlinkMacSystemFont, 'Helvetica Neue', sans-serif"
    font-size="10" font-weight="700" letter-spacing="0.3" fill="#444444">Index</text>
  <text x="336"   y="340" text-anchor="middle"
    font-family="-apple-system, BlinkMacSystemFont, 'Helvetica Neue', sans-serif"
    font-size="10" font-weight="700" letter-spacing="0.3" fill="#444444">Feedback</text>
  <text x="462.5" y="340" text-anchor="middle"
    font-family="-apple-system, BlinkMacSystemFont, 'Helvetica Neue', sans-serif"
    font-size="10" font-weight="700" letter-spacing="0.3" fill="#444444">Sub</text>

  <!-- Section separator -->
  <line x1="30" y1="362" x2="515" y2="362" stroke="#b8b8b8" stroke-width="0.75"/>

  <!--
    Knob cy=407, cx = 82.5, 177.5, 272.5, 367.5, 462.5
    Indicator deltas from v3-large:
      Attack  (-5.4,+5.3)  / (-12.9,+12.5)
      Decay   (-6.7,+3.2)  / (-16.3,+7.7)
      Sustain (+7.4,-1.2)  / (+17.9,-2.8)
      Release (-6.4,+3.9)  / (-15.3,+9.5)
      Output  dir=(+0.924,-0.383) inner r=7.5 outer r=18
  -->

  <!-- Attack (cx=82.5) -->
  <circle cx="82.5" cy="407" r="24" fill="#111111"/>
  <line x1="77.1" y1="412.3" x2="69.6" y2="419.5" stroke="#ffffff" stroke-width="3.3"
        stroke-linecap="round"/>

  <!-- Decay (cx=177.5) -->
  <circle cx="177.5" cy="407" r="24" fill="#111111"/>
  <line x1="170.8" y1="410.2" x2="161.2" y2="414.7" stroke="#ffffff" stroke-width="3.3"
        stroke-linecap="round"/>

  <!-- Sustain (cx=272.5) -->
  <circle cx="272.5" cy="407" r="24" fill="#111111"/>
  <line x1="279.9" y1="405.8" x2="290.4" y2="404.2" stroke="#ffffff" stroke-width="3.3"
        stroke-linecap="round"/>

  <!-- Release (cx=367.5) -->
  <circle cx="367.5" cy="407" r="24" fill="#111111"/>
  <line x1="361.1" y1="410.9" x2="352.2" y2="416.5" stroke="#ffffff" stroke-width="3.3"
        stroke-linecap="round"/>

  <!-- Output (cx=462.5) — ~75% -->
  <circle cx="462.5" cy="407" r="24" fill="#111111"/>
  <line x1="469.4" y1="404.1" x2="479.1" y2="400.1" stroke="#ffffff" stroke-width="3.3"
        stroke-linecap="round"/>

  <!-- Knob labels -->
  <text x="82.5"  y="444" text-anchor="middle"
    font-family="-apple-system, BlinkMacSystemFont, 'Helvetica Neue', sans-serif"
    font-size="10" font-weight="700" letter-spacing="0.3" fill="#444444">Attack</text>
  <text x="177.5" y="444" text-anchor="middle"
    font-family="-apple-system, BlinkMacSystemFont, 'Helvetica Neue', sans-serif"
    font-size="10" font-weight="700" letter-spacing="0.3" fill="#444444">Decay</text>
  <text x="272.5" y="444" text-anchor="middle"
    font-family="-apple-system, BlinkMacSystemFont, 'Helvetica Neue', sans-serif"
    font-size="10" font-weight="700" letter-spacing="0.3" fill="#444444">Sustain</text>
  <text x="367.5" y="444" text-anchor="middle"
    font-family="-apple-system, BlinkMacSystemFont, 'Helvetica Neue', sans-serif"
    font-size="10" font-weight="700" letter-spacing="0.3" fill="#444444">Release</text>
  <text x="462.5" y="444" text-anchor="middle"
    font-family="-apple-system, BlinkMacSystemFont, 'Helvetica Neue', sans-serif"
    font-size="10" font-weight="700" letter-spacing="0.3" fill="#444444">Output</text>

</svg>
